# xmcd
#
# Track frame offsets:
#	150
#	18005
#	31795
#	48536
#	61435
#	76702
#	89752
#	110801
#	123393
#	133982
#	144332
#	161654
#
# Disc length: 2403 seconds
#
# Revision: 3
# Processed by: cddbd v1.5.2PL0 Copyright (c) Steve Scherf et al.
# Submitted via: audiograbber 1.83.01
#
DISCID=a009610c
DTITLE=Sharon Jones and The Dap-Kings - Soul Time!
DYEAR=2011
DGENRE=Soul
TTITLE0=Genuine Pt. 1
TTITLE1=Genuine Pt. 2
TTITLE2=Longer And Stronger
TTITLE3=He Said I Can
TTITLE4=I'm Not Gonna Cry
TTITLE5=When I Come Home
TTITLE6=What If We All Stopped Paying Taxes?
TTITLE7=Settling In
TTITLE8=Ain't No Chimneys In The Projects
TTITLE9=New Shoes
TTITLE10=Without A Trace
TTITLE11=Inpsiration Information
EXTD=
EXTT0=
EXTT1=
EXTT2=
EXTT3=
EXTT4=
EXTT5=
EXTT6=
EXTT7=
EXTT8=
EXTT9=
EXTT10=
EXTT11=
PLAYORDER=
